HIERARCHY
ROOT Character1_Hips
{
  OFFSET 268.997 91.2904 -24.0085
  CHANNELS 6 Xposition Yposition Zposition Zrotation Xrotation Yrotation
  JOINT Character1_Spine
  {
    OFFSET 0 8.754 -1.339
    CHANNELS 3 Zrotation Xrotation Yrotation
    JOINT Character1_Spine1
    {
      OFFSET 0 10.855 -0.645001
      CHANNELS 3 Zrotation Xrotation Yrotation
      JOINT Character1_LeftShoulder
      {
        OFFSET 1.467 27.745 1.178
        CHANNELS 3 Zrotation Xrotation Yrotation
        JOINT Character1_LeftArm
        {
          OFFSET 18.486 -1.858 0.275
          CHANNELS 3 Zrotation Xrotation Yrotation
          JOINT Character1_LeftForeArm
          {
            OFFSET 31.798 2.35985 2.92113
            CHANNELS 3 Zrotation Xrotation Yrotation
            JOINT Character1_LeftHand
            {
              OFFSET 29.001 1.642 2.11199
              CHANNELS 3 Zrotation Xrotation Yrotation
              End Site
              {
                OFFSET 0.269758 0.141128 0.89614
              }
            }
            JOINT L_Radius_RIGMESH
            {
              OFFSET 0.592911 0.209926 -0.435177
              CHANNELS 3 Zrotation Xrotation Yrotation
              End Site
              {
                OFFSET 0 0 0
              }
            }
          }
          JOINT L_Humerus_RIGMESH
          {
            OFFSET 0.000383861 -0.000257932 -6.47351e-005
            CHANNELS 3 Zrotation Xrotation Yrotation
            End Site
            {
              OFFSET 0 0 0
            }
          }
        }
        JOINT L_Shoulder_RIGMESH
        {
          OFFSET 3.24498e-005 -0.000608592 -0.000527677
          CHANNELS 3 Zrotation Xrotation Yrotation
          End Site
          {
            OFFSET 0 0 0
          }
        }
      }
      JOINT Character1_RightShoulder
      {
        OFFSET -1.467 27.745 1.178
        CHANNELS 3 Zrotation Xrotation Yrotation
        JOINT Character1_RightArm
        {
          OFFSET -18.486 -1.858 0.275
          CHANNELS 3 Zrotation Xrotation Yrotation
          JOINT Character1_RightForeArm
          {
            OFFSET -31.798 2.3598 2.92067
            CHANNELS 3 Zrotation Xrotation Yrotation
            JOINT Character1_RightHand
            {
              OFFSET -29.0007 1.64167 2.112
              CHANNELS 3 Zrotation Xrotation Yrotation
              End Site
              {
                OFFSET 161.773 0.141827 0.896322
              }
            }
            JOINT R_Radius_RIGMESH
            {
              OFFSET 104.095 0.21029 -0.434995
              CHANNELS 3 Zrotation Xrotation Yrotation
              End Site
              {
                OFFSET 0 0 0
              }
            }
          }
          JOINT R_Humerus_RIGMESH
          {
            OFFSET 39.9064 -0.000257932 -6.47351e-005
            CHANNELS 3 Zrotation Xrotation Yrotation
            End Site
            {
              OFFSET 0 0 0
            }
          }
        }
        JOINT R_Shoulder_RIGMESH
        {
          OFFSET -3.24498e-005 -0.000608592 -0.000527677
          CHANNELS 3 Zrotation Xrotation Yrotation
          End Site
          {
            OFFSET 0 0 0
          }
        }
      }
      JOINT Character1_Neck
      {
        OFFSET 0 30.836 0.626
        CHANNELS 3 Zrotation Xrotation Yrotation
        JOINT Character1_Head
        {
          OFFSET 0 8.074 3.498
          CHANNELS 3 Zrotation Xrotation Yrotation
          End Site
          {
            OFFSET 0 -0.00153379 1.54668e-005
          }
        }
        JOINT Neck_RIGMESH
        {
          OFFSET -0.693804 0.348383 -1.3675
          CHANNELS 3 Zrotation Xrotation Yrotation
          End Site
          {
            OFFSET 0 0 0
          }
        }
      }
      JOINT Torso_RIGMESH
      {
        OFFSET 0 -0.000828813 -0.000380861
        CHANNELS 3 Zrotation Xrotation Yrotation
        End Site
        {
          OFFSET 0 0 0
        }
      }
    }
    JOINT Spine_RIGMESH
    {
      OFFSET 0.0299463 -0.029689 -0.129357
      CHANNELS 3 Zrotation Xrotation Yrotation
      End Site
      {
        OFFSET 0 0 0
      }
    }
  }
  JOINT Character1_RightUpLeg
  {
    OFFSET -9.035 -4.63425 1.845
    CHANNELS 3 Zrotation Xrotation Yrotation
    JOINT Character1_RightLeg
    {
      OFFSET -0.919513 -40.345 1.15533
      CHANNELS 3 Zrotation Xrotation Yrotation
      JOINT Character1_RightFoot
      {
        OFFSET 1.95452 -45.2655 -4.18888
        CHANNELS 3 Zrotation Xrotation Yrotation
        JOINT Character1_RightToeBase
        {
          OFFSET 1.87056 -6.69517 14.7145
          CHANNELS 3 Zrotation Xrotation Yrotation
          End Site
          {
            OFFSET 0 0 0
          }
        }
        JOINT R_Talus_RIGMESH
        {
          OFFSET 8 -7.75529 4.18888
          CHANNELS 3 Zrotation Xrotation Yrotation
          End Site
          {
            OFFSET 0 0 0
          }
        }
      }
      JOINT R_Tibia_RIGMESH
      {
        OFFSET 0 0 0
        CHANNELS 3 Zrotation Xrotation Yrotation
        End Site
        {
          OFFSET 0 0 0
        }
      }
    }
    JOINT R_Femur_RIGMESH
    {
      OFFSET 0 0 0
      CHANNELS 3 Zrotation Xrotation Yrotation
      End Site
      {
        OFFSET 0 0 0
      }
    }
  }
  JOINT Character1_LeftUpLeg
  {
    OFFSET 9.035 -4.63425 1.845
    CHANNELS 3 Zrotation Xrotation Yrotation
    JOINT Character1_LeftLeg
    {
      OFFSET 0.919443 -40.3447 1.16323
      CHANNELS 3 Zrotation Xrotation Yrotation
      JOINT Character1_LeftFoot
      {
        OFFSET -1.95452 -45.2655 -4.18888
        CHANNELS 3 Zrotation Xrotation Yrotation
        JOINT Character1_LeftToeBase
        {
          OFFSET -1.87056 -6.69517 14.7145
          CHANNELS 3 Zrotation Xrotation Yrotation
          End Site
          {
            OFFSET 0 0 0
          }
        }
        JOINT L_Talus_RIGMESH
        {
          OFFSET -8 -7.75529 4.18888
          CHANNELS 3 Zrotation Xrotation Yrotation
          End Site
          {
            OFFSET 0 0 0
          }
        }
      }
      JOINT L_Tibia_RIGMESH
      {
        OFFSET 0 0 0
        CHANNELS 3 Zrotation Xrotation Yrotation
        End Site
        {
          OFFSET 0 0 0
        }
      }
    }
    JOINT L_Femur_RIGMESH
    {
      OFFSET 0 0 0
      CHANNELS 3 Zrotation Xrotation Yrotation
      End Site
      {
        OFFSET 0 0 0
      }
    }
  }
  JOINT Pelvis_RIGMESH
  {
    OFFSET 0 0 0
    CHANNELS 3 Zrotation Xrotation Yrotation
    End Site
    {
      OFFSET 0 0 0
    }
  }
}
MOTION
Frames:	7
Frame Time:	0.00833333
268.997 91.2904 -24.0085 -2.10622 -9.59118 152.107 -7.95139e-016 3.18055e-015 -0 6.32971 1.81597 2.74247 9.3303 -4.25632 5.69905 -73.6238 -3.15062 -13.1475 0.1637 0.453813 -36.5707 6.83354 -11.0611 -8.80369 -4.77083e-015 6.36111e-015 6.36111e-015 -7.15625e-015 3.18055e-015 -0 -3.03147e-015 5.71506e-016 3.18055e-015 -5.61214 -15.1217 2.92793 73.9593 18.8701 2.74657 1.57294 2.82508 38.6925 -11.339 -5.09759 3.11285 -1.81391e-015 1.26725e-015 3.18055e-015 2.68204e-015 0 -2.23633e-016 3.97569e-016 3.97569e-016 -0 -7.95139e-016 -3.18055e-015 -0 -19.9339 0.550196 43.1242 -4.89718 13.9575 20.9954 -7.95139e-016 -3.18055e-015 -0 -0.617457 1.66049 4.18381 -7.66176 -33.3316 13.5692 -4.55614 31.281 0.636178 20.5602 -9.33925 15.4966 1.83969 -14.9445 0.430056 -1.28899e-016 -1.2424e-017 -0 -7.95139e-016 -1.59028e-015 3.18055e-015 2.38542e-015 -3.18055e-015 -0 18.1397 -44.6246 22.6773 -9.52627 48.862 3.25541 8.20751 -1.0319 -13.321 2.0237 -13.5282 0.352833 7.95139e-016 0 6.36111e-015 3.97569e-016 4.77083e-015 -1.59028e-015 3.18055e-015 0 1.59028e-015 -7.95139e-016 3.18055e-015 -0 
268.958 90.6887 -23.3149 -2.12442 -10.0585 152.042 7.95139e-016 1.59028e-015 -3.18055e-015 6.36252 2.45975 2.64895 9.62283 -4.73031 5.47832 -72.2441 -4.46581 -13.3915 0.173844 0.466509 -37.782 7.09908 -12.9865 -9.44052 -6.36111e-015 1.59028e-015 -9.54166e-015 7.95139e-016 -3.18055e-015 3.18055e-015 -1.19271e-015 -1.98785e-016 -3.18055e-015 -5.36667 -15.2365 3.19944 74.1365 18.4068 3.47939 1.54757 2.68937 37.0716 -10.8564 -5.9201 3.18155 -1.04362e-015 -4.47266e-016 -0 6.23221e-015 7.95139e-016 7.45443e-017 9.93923e-017 -3.97569e-016 -3.18055e-015 0 0 -0 -19.868 -0.344407 43.4964 -5.01781 13.7022 21.2185 0 0 -0 -0.808573 1.9428 4.18602 -6.9935 -35.4886 13.1536 -4.99939 33.5384 0.842918 20.327 -9.58595 16.2624 1.83969 -14.9445 0.430056 -5.04727e-017 6.21202e-018 1.19271e-015 -0 0 1.59028e-015 7.95139e-016 3.18055e-015 -0 20.6166 -46.1663 25.701 -10.1369 50.6678 3.70423 7.33934 -1.2132 -12.9615 2.0237 -13.5282 0.352833 -7.95139e-016 0 3.18055e-015 3.97569e-016 -1.59028e-015 -1.59028e-015 7.95139e-016 -1.27222e-014 -1.59028e-015 7.95139e-016 1.59028e-015 -3.18055e-015 
268.914 90.0902 -22.6154 -2.19549 -10.5261 151.971 -0 0 6.36111e-015 6.28077 3.0974 2.54419 9.91271 -5.18612 5.26783 -70.8362 -5.89399 -13.6408 0.18328 0.47779 -38.8787 7.37862 -15.0231 -10.1069 4.77083e-015 4.77083e-015 3.18055e-015 3.18055e-015 -6.36111e-015 -0 -7.95139e-016 7.95139e-016 -0 -5.10111 -15.3341 3.47161 74.314 17.955 4.24602 1.5165 2.54683 35.3594 -10.3734 -6.73337 3.25329 -3.77691e-015 -9.93923e-016 6.36111e-015 -6.00547e-015 0 -2.48481e-016 3.97569e-016 0 9.54166e-015 -1.59028e-015 -3.18055e-015 6.36111e-015 -19.7392 -1.23125 43.8288 -5.1392 13.4302 21.4588 -1.59028e-015 -3.18055e-015 6.36111e-015 -1.00098 2.23604 4.20264 -6.40282 -37.7384 12.6535 -5.47597 35.8802 1.08962 19.8403 -9.81146 17.0311 1.83969 -14.9445 0.430056 -1.55301e-018 4.96962e-017 -7.95139e-016 1.59028e-015 -3.18055e-015 3.18055e-015 -0 -6.36111e-015 -0 23.1068 -47.5969 28.9391 -10.7366 52.316 4.15971 6.3615 -1.43338 -12.4425 2.0237 -13.5282 0.352833 1.59028e-015 1.59028e-015 -3.18055e-015 -7.95139e-016 0 -1.59028e-015 -7.95139e-016 9.54166e-015 7.95139e-016 -0 0 6.36111e-015 
268.881 89.5069 -21.9388 -2.30153 -10.9619 151.906 0 0 -3.18055e-015 6.13859 3.75342 2.39284 10.1781 -5.60125 5.03703 -69.4461 -7.44705 -13.9219 0.191654 0.48737 -39.8217 7.63607 -17.067 -10.7689 -3.18055e-015 -3.97569e-015 3.18055e-015 -6.36111e-015 -1.59028e-015 3.18055e-015 6.95746e-016 9.93923e-016 3.18055e-015 -4.83582 -15.4175 3.76596 74.5143 17.4235 4.96648 1.48103 2.4036 33.6267 -9.89359 -7.56913 3.3278 9.93923e-016 -1.98785e-015 1.27222e-014 -2.77056e-015 0 1.73937e-016 -2.48481e-017 9.93923e-017 -3.18055e-015 7.95139e-016 -3.18055e-015 3.18055e-015 -19.5873 -2.09123 44.087 -5.25323 13.1932 21.6647 7.95139e-016 -3.18055e-015 3.18055e-015 -1.19087 2.5074 4.19075 -5.95099 -39.9122 12.0482 -5.9572 38.1448 1.35804 19.325 -10.0255 17.7722 1.83969 -14.9445 0.430056 6.21202e-017 0 7.95139e-016 -4.77083e-015 6.36111e-015 -0 -2.38542e-015 3.18055e-015 -1.59028e-015 25.5877 -48.8751 32.2513 -11.2993 53.7624 4.59828 5.48606 -1.68867 -11.7792 2.0237 -13.5282 0.352833 -7.95139e-016 0 -0 -3.97569e-016 0 3.18055e-015 -7.95139e-016 -6.36111e-015 -7.95139e-016 0 0 -3.18055e-015 
268.876 88.9512 -21.3139 -2.424 -11.3337 151.861 0 0 -0 5.99172 4.45246 2.15851 10.397 -5.95321 4.75536 -68.1206 -9.13749 -14.2609 0.198508 0.494856 -40.5722 7.83532 -19.0146 -11.3934 3.18055e-015 4.77083e-015 -0 -1.59028e-015 -1.59028e-015 -3.18055e-015 -5.96354e-016 -1.19271e-015 3.18055e-015 -4.59126 -15.4901 4.10406 74.761 16.7212 5.56033 1.44228 2.26565 31.9447 -9.42067 -8.45889 3.4049 -1.2921e-015 -1.78906e-015 -0 -6.88292e-015 7.95139e-016 3.47873e-016 3.97569e-016 0 -0 -8.82781e-032 1.59028e-015 3.18055e-015 -19.4538 -2.90671 44.2366 -5.35325 13.0428 21.7843 -8.82781e-032 1.59028e-015 3.18055e-015 -1.37368 2.7241 4.10738 -5.69401 -41.8358 11.3098 -6.40856 40.1707 1.6216 19.0059 -10.2341 18.4528 1.8397 -14.945 0.430057 1.36664e-016 0 -3.97569e-016 1.59028e-015 6.36111e-015 3.18055e-015 3.97569e-015 -3.18055e-015 -4.77083e-015 28.0066 -49.9843 35.4731 -11.7954 54.963 4.99069 4.92559 -1.9711 -10.9856 2.02366 -13.5229 0.352825 1.19271e-015 -3.18055e-015 3.18055e-015 7.95139e-016 -1.59028e-015 -0 7.95139e-016 0 7.95139e-016 0 0 -0 
268.891 88.4219 -20.741 -2.49212 -11.6398 152.042 7.95139e-016 -1.59028e-015 3.18055e-015 5.81793 5.2242 1.72829 10.5727 -6.24519 4.39996 -66.8425 -11.0567 -14.6243 0.202862 0.500088 -41.0986 7.98539 -20.8834 -11.9872 -4.77083e-015 -5.56597e-015 3.18055e-015 6.36111e-015 -4.77083e-015 -3.18055e-015 1.19271e-015 0 3.18055e-015 -4.34853 -15.5547 4.55306 75.1024 15.7727 6.04101 1.40043 2.13174 30.298 -8.94646 -9.4489 3.45215 1.19271e-015 0 6.36111e-015 1.93815e-015 0 -9.93923e-017 -2.98177e-016 1.98785e-016 -9.54166e-015 -1.59028e-015 3.18055e-015 -0 -19.3075 -3.77516 44.3021 -5.43673 13.0049 21.811 -1.59028e-015 3.18055e-015 -0 -1.55122 2.86176 3.91286 -5.71582 -43.4686 10.3425 -6.82006 41.9262 1.8683 18.9034 -10.4218 19.1114 1.83325 -14.8909 0.429949 -3.10601e-017 -1.98785e-016 1.59028e-015 7.95139e-016 -3.18055e-015 3.18055e-015 -7.95139e-016 -3.18055e-015 1.59028e-015 30.2473 -50.9486 38.5578 -12.2112 55.9069 5.31691 4.76921 -2.29679 -9.89478 2.01934 -13.4933 0.352781 3.97569e-016 -3.18055e-015 -0 -1.98785e-016 -1.59028e-015 -1.59028e-015 -3.97569e-016 6.36111e-015 1.19271e-015 7.95139e-016 -1.59028e-015 3.18055e-015 
268.907 87.9105 -20.1996 -2.46789 -11.9129 152.561 -1.59028e-015 1.59028e-015 3.18055e-015 5.59368 6.04913 1.0931 10.7198 -6.49221 3.99112 -65.5795 -13.1965 -14.9908 0.206266 0.503331 -41.4285 8.12343 -22.7417 -12.5724 -1.59028e-015 5.56597e-015 -3.18055e-015 3.18055e-015 -1.59028e-015 -3.18055e-015 -1.98785e-015 -1.59028e-015 -3.18055e-015 -4.09413 -15.609 5.09851 75.5228 14.6386 6.46259 1.35451 1.9981 28.6391 -8.4697 -10.5198 3.4473 -1.98785e-015 1.19271e-015 -3.18055e-015 -1.11816e-016 0 -1.98785e-016 -9.93923e-017 0 3.18055e-015 1.59028e-015 -3.18055e-015 -0 -19.1107 -4.738 44.3314 -5.5086 13.0476 21.7699 1.59028e-015 -3.18055e-015 -0 -1.72446 2.94305 3.63943 -5.99473 -44.9351 9.14089 -7.21466 43.5352 2.1128 18.8662 -10.5835 19.7682 1.81579 -14.7572 0.423778 2.29845e-016 -1.98785e-016 7.95139e-016 1.59028e-015 -3.18055e-015 -0 1.76556e-031 3.18055e-015 -3.18055e-015 32.2894 -51.8063 41.5751 -12.5408 56.6272 5.57656 4.9154 -2.66119 -8.4254 2.00969 -13.4274 0.352684 -3.97569e-016 0 -0 -2.20695e-032 -1.59028e-015 -7.95139e-016 -4.41391e-032 -3.18055e-015 -7.95139e-016 -1.59028e-015 1.59028e-015 3.18055e-015 
